<?xml version="1.0" standalone="no"?>
<!DOCTYPE svg PUBLIC "-//W3C//DTD SVG 20010904//EN"
        "http://www.w3.org/TR/2001/REC-SVG-20010904/DTD/svg10.dtd">
<svg version="1.0" xmlns="http://www.w3.org/2000/svg"
     width="863.000000pt" height="209.000000pt" viewBox="0 0 863.000000 209.000000"
     preserveAspectRatio="xMidYMid meet">
    <metadata>
        Created by potrace 1.16, written by Peter Selinger 2001-2019
    </metadata>
    <g transform="translate(0.000000,209.000000) scale(0.100000,-0.100000)"
       fill="#000000" stroke="none">
        <path d="M1017 1963 l-68 -26 -47 -89 -47 -89 -56 6 c-32 3 -87 3 -123 -1 -60
-6 -66 -9 -66 -29 0 -23 1 -23 105 -17 74 3 105 2 105 -6 0 -7 -12 -36 -27
-67 -26 -53 -28 -55 -68 -55 -100 0 -223 31 -265 67 -18 15 -35 22 -40 17 -5
-5 -18 -37 -29 -71 -43 -130 -22 -318 49 -425 67 -101 208 -151 366 -128 166
23 260 116 295 290 25 127 -8 305 -66 357 -14 12 -49 30 -79 39 l-55 17 36 66
c43 79 52 86 120 108 54 17 57 20 47 47 -8 20 -4 20 -87 -11z m-34 -290 c22
-11 26 -17 17 -28 -6 -8 -25 -17 -41 -20 -16 -4 -30 -10 -33 -13 -2 -4 0 -39
5 -77 4 -39 4 -86 -1 -105 -5 -20 -8 -26 -9 -14 -3 70 -42 147 -86 172 -17 9
-15 14 14 65 l31 55 38 -10 c20 -6 50 -17 65 -25z"/>
        <path d="M2025 1353 c-125 -139 -361 -437 -462 -581 -47 -68 -87 -121 -89
-120 -1 2 17 66 41 143 24 77 58 192 76 255 17 63 49 168 70 234 38 119 39
136 15 136 -20 0 -97 -115 -321 -481 -224 -366 -409 -529 -600 -529 -93 0
-159 35 -201 106 -32 55 -33 139 -2 201 66 132 279 174 449 88 38 -18 50 -21
58 -11 14 16 -41 47 -122 71 -81 23 -221 17 -299 -14 -67 -26 -139 -92 -164
-148 -24 -55 -22 -148 4 -199 27 -52 78 -97 135 -119 65 -25 222 -17 292 14
163 73 293 214 479 521 100 163 186 298 186 289 0 -3 -18 -57 -40 -119 -96
-269 -160 -574 -123 -587 6 -2 38 35 70 84 150 228 497 677 534 691 4 2 -14
-43 -40 -100 -71 -151 -133 -314 -173 -453 -17 -60 -22 -107 -23 -190 0 -103
2 -113 29 -162 43 -78 119 -123 207 -123 20 0 67 9 104 21 51 16 65 24 63 37
-5 19 -6 19 -63 -2 -22 -8 -71 -15 -109 -16 -68 0 -69 1 -111 42 -41 42 -65
104 -65 169 0 94 78 343 220 704 28 72 59 151 69 177 15 38 16 49 6 58 -10 8
-34 -13 -100 -87z"/>
        <path d="M4349 1422 c-145 -93 -309 -351 -366 -577 -14 -52 -30 -86 -65 -131
-94 -122 -172 -173 -266 -174 -46 0 -58 4 -83 30 -25 24 -30 37 -27 67 3 37 5
38 48 44 117 18 230 84 268 159 30 59 28 86 -8 122 -28 27 -36 30 -78 26 -65
-6 -115 -32 -183 -96 -70 -64 -109 -138 -116 -219 -6 -74 17 -118 78 -151 58
-31 141 -27 217 12 48 24 172 138 172 157 0 5 5 9 10 9 6 0 10 -15 10 -32 1
-50 35 -115 72 -138 70 -44 160 0 255 126 44 59 54 77 44 87 -10 9 -16 7 -29
-13 -76 -113 -154 -180 -208 -180 -49 0 -64 28 -64 120 l0 76 61 59 c141 139
300 359 355 492 55 134 10 192 -97 125z m87 -27 c9 -22 -22 -105 -68 -181 -83
-139 -307 -412 -316 -385 -6 18 38 141 86 236 109 219 272 399 298 330z m-618
-464 c2 -12 1 -33 -2 -45 -8 -33 -80 -111 -129 -139 -49 -29 -118 -50 -129
-39 -11 11 25 81 71 140 76 96 181 142 189 83z"/>
        <path d="M6050 1426 c-14 -8 -63 -22 -110 -31 -98 -20 -182 -17 -385 14 -361
56 -614 -9 -699 -181 -46 -92 -31 -204 36 -264 12 -12 43 -32 68 -45 39 -21
58 -24 145 -23 108 1 210 28 210 55 0 16 -10 15 -85 -6 -111 -31 -213 -15
-271 44 -65 65 -70 161 -15 255 51 87 175 142 341 153 69 4 129 -1 262 -21
189 -29 325 -33 418 -12 81 18 135 42 135 60 0 19 -17 20 -50 2z"/>
        <path d="M7297 1330 c-47 -52 -155 -211 -202 -295 -15 -27 -28 -51 -29 -52 -1
-1 -21 5 -45 13 -113 39 -272 -56 -349 -208 -32 -62 -60 -88 -97 -88 -18 0
-19 7 -1 56 32 92 28 181 -10 219 -36 36 -99 7 -123 -58 -23 -59 -2 -168 40
-213 l22 -24 -29 -37 c-56 -68 -99 -96 -158 -101 -50 -4 -55 -2 -71 22 -43 64
10 207 119 324 44 46 56 66 48 74 -24 24 -139 -76 -204 -176 -40 -62 -68 -85
-102 -86 -15 0 -17 5 -11 23 29 91 38 158 26 196 -15 51 -35 71 -70 71 -47 0
-91 -64 -91 -134 0 -48 27 -130 50 -151 11 -10 20 -22 20 -27 0 -17 -91 -106
-125 -122 -18 -9 -51 -16 -74 -16 -32 0 -44 5 -57 25 -40 62 14 210 119 321
42 46 57 68 49 76 -7 7 -23 1 -55 -21 -161 -110 -240 -294 -169 -390 29 -40
61 -53 119 -47 79 7 151 55 213 143 10 14 30 23 63 27 l47 6 0 -36 c0 -44 21
-93 50 -119 17 -16 36 -20 85 -20 55 0 69 5 119 38 31 20 70 56 87 80 23 33
38 43 67 48 20 3 47 9 60 13 20 7 22 4 22 -26 0 -71 62 -128 140 -128 48 0 92
20 139 64 21 19 35 27 38 19 10 -27 44 -61 68 -67 45 -11 100 11 142 57 55 60
99 135 85 149 -7 7 -24 -13 -56 -61 -69 -107 -150 -144 -167 -78 -29 109 92
389 314 728 15 23 16 27 3 32 -10 4 -31 -12 -59 -43z m-271 -374 c17 -13 18
-17 6 -48 -24 -59 -62 -182 -62 -202 0 -50 -116 -146 -176 -146 -52 0 -77 40
-72 115 7 108 82 220 180 269 58 29 95 33 124 12z m-952 -12 c21 -21 21 -116
0 -177 -18 -53 -27 -57 -49 -24 -38 59 -37 183 3 206 23 14 28 13 46 -5z m476
-3 c24 -46 -3 -228 -34 -218 -45 15 -68 158 -33 210 20 32 52 35 67 8z"/>
        <path d="M5610 1202 c-88 -88 -175 -204 -241 -322 -17 -30 -32 -41 -75 -56
-63 -21 -77 -50 -18 -40 34 7 35 7 23 -16 -26 -51 -99 -146 -143 -186 -66 -61
-116 -82 -201 -82 -160 0 -265 112 -207 220 22 42 91 80 144 80 46 0 136 -30
177 -59 34 -24 41 -26 41 -8 0 19 -48 61 -100 88 -32 16 -67 24 -125 26 -69 4
-86 1 -125 -19 -25 -13 -55 -39 -68 -58 -20 -30 -23 -45 -20 -97 5 -81 39
-125 133 -173 65 -33 73 -35 169 -35 94 1 105 3 164 33 78 41 146 110 222 227
32 50 64 95 69 102 11 12 98 29 107 20 3 -3 -16 -37 -42 -76 -39 -59 -45 -73
-34 -86 27 -33 34 -25 99 103 36 69 48 83 85 101 47 23 70 55 64 92 -2 16 -11
25 -26 27 -27 4 -53 -16 -93 -75 -25 -36 -36 -43 -75 -49 -24 -3 -48 -4 -51
-1 -14 14 188 307 256 371 31 29 32 46 4 46 -8 0 -59 -44 -113 -98z"/>
        <path d="M3138 936 c-24 -30 -54 -77 -68 -103 -49 -94 -151 -243 -184 -268
-19 -14 -46 -25 -64 -25 -54 0 -53 35 6 154 72 145 71 143 18 195 -36 35 -44
50 -40 68 13 48 -17 19 -80 -80 -36 -57 -66 -107 -66 -112 0 -12 -85 -128
-116 -157 -41 -38 -79 -51 -98 -33 -22 23 -4 84 71 233 64 128 76 178 28 118
l-24 -30 -29 31 c-72 78 -229 39 -345 -87 -67 -72 -100 -138 -105 -211 -4 -51
-1 -59 24 -88 57 -64 154 -51 249 33 l50 43 10 -30 c21 -66 99 -73 171 -16 46
37 105 113 140 182 31 63 85 147 94 147 4 0 17 -11 29 -24 l22 -24 -52 -99
c-65 -125 -74 -184 -35 -225 52 -57 144 -26 223 76 l38 49 8 -41 c15 -79 87
-103 176 -60 67 32 182 150 221 227 36 73 52 170 30 196 -49 59 -109 -58 -81
-159 13 -51 1 -73 -81 -152 -65 -63 -132 -104 -167 -104 -63 0 -24 195 73 360
19 32 32 61 29 64 -15 15 -36 2 -75 -48z m-669 -32 c12 -15 21 -31 21 -35 0
-5 -26 -50 -57 -101 -106 -171 -213 -256 -287 -228 -74 28 -26 191 90 304 86
84 193 111 233 60z"/>
        <path d="M7537 713 c-9 -15 -79 -394 -74 -399 3 -3 14 -3 24 0 15 5 23 26 37
101 13 68 24 101 41 119 29 32 69 42 102 27 29 -13 29 -19 -1 -169 -12 -64
-12 -74 1 -79 24 -9 31 7 53 112 23 112 20 148 -16 172 -30 20 -97 13 -126
-14 -21 -18 -21 -18 -15 27 3 25 9 60 13 78 6 28 4 32 -14 32 -12 0 -23 -3
-25 -7z"/>
        <path d="M7263 595 c-36 -16 -53 -42 -53 -83 0 -36 13 -47 81 -71 45 -15 55
-22 57 -44 2 -18 -3 -29 -18 -37 -22 -12 -95 -9 -137 5 -20 6 -23 4 -23 -18 0
-28 27 -37 107 -37 77 0 123 36 123 98 0 36 -10 45 -82 72 -64 24 -76 42 -48
70 22 22 81 27 124 10 23 -9 26 -7 26 14 0 16 -7 26 -22 30 -38 10 -101 6
-135 -9z"/>
        <path d="M7891 593 c-96 -47 -124 -229 -42 -273 35 -18 105 -12 142 13 63 42
101 167 69 228 -25 46 -108 62 -169 32z m111 -40 c23 -20 25 -101 3 -143 -29
-57 -98 -79 -137 -43 -20 18 -25 84 -8 128 24 64 101 96 142 58z"/>
        <path d="M8246 589 c-21 -17 -26 -18 -26 -5 0 10 -9 16 -24 16 -22 0 -24 -8
-60 -189 -20 -104 -36 -194 -36 -201 0 -6 10 -10 22 -8 19 3 25 13 37 76 l14
73 21 -20 c29 -27 88 -27 132 0 50 31 88 115 82 181 -4 40 -11 57 -32 75 -35
30 -93 31 -130 2z m98 -41 c30 -42 13 -131 -33 -177 -29 -29 -85 -28 -105 1
-32 46 -12 136 39 176 36 29 79 29 99 0z"/>
    </g>
</svg>
